<svg focusable="false" aria-hidden="true" width="22" height="20" viewBox="0 0 22 20" fill="none"
     xmlns="http://www.w3.org/2000/svg">
    <path fill-rule="evenodd" clip-rule="evenodd"
          d="M8.91667 0.282349C4.27527 0.282349 0.5 3.65972 0.5 7.81186C0.5 11.964 4.27532 15.3414 8.91671 15.3414C10.7574 15.3414 12.4603 14.8079 13.846 13.9084L19.3461 18.8287C19.7041 19.1488 20.2844 19.1487 20.6425 18.8286L21.2316 18.3015C21.5895 17.9813 21.5895 17.4621 21.2315 17.1418L15.7315 12.2216C16.737 10.9819 17.3334 9.45852 17.3334 7.81186C17.3334 3.65971 13.5581 0.282349 8.91667 0.282349ZM3.16669 7.81186C3.16669 4.97573 5.74639 2.66794 8.91671 2.66794C12.087 2.66794 14.6667 4.97573 14.6667 7.81186C14.6667 10.648 12.087 12.9558 8.91671 12.9558C5.74639 12.9558 3.16669 10.648 3.16669 7.81186Z"
          fill="black"/>
</svg>
